<svg xmlns="http://www.w3.org/2000/svg" width="75" height="75" viewBox="0 0 75 75"><g><g><g><path fill="#2fbe6e" d="M74.452 4.272v36.472a4.131 4.131 0 0 1-4.131 4.132H25.579a4.13 4.13 0 0 1-4.13-4.132V4.272A4.13 4.13 0 0 1 25.58.14h44.742a4.131 4.131 0 0 1 4.13 4.132z"/></g><g><path fill="#19ad5a" d="M74.452 4.272v36.472a4.131 4.131 0 0 1-4.131 4.132H47.95V.14h22.37a4.131 4.131 0 0 1 4.132 4.132z"/></g><g><path fill="#fec833" d="M64.213 14.402v36.472a4.131 4.131 0 0 1-4.132 4.132H15.34a4.131 4.131 0 0 1-4.131-4.132V14.402c0-2.28 1.85-4.13 4.131-4.13h44.741a4.131 4.131 0 0 1 4.132 4.13z"/></g><g><path fill="#f4b60b" d="M64.213 14.402v36.472a4.131 4.131 0 0 1-4.132 4.132h-22.71V10.272h22.71a4.131 4.131 0 0 1 4.132 4.13z"/></g><g><path fill="#2fbe6e" d="M53.002 24.918v36.473a4.129 4.129 0 0 1-4.13 4.13H33.97c-.48 0-.93.236-1.202.633l-5.665 8.231a.725.725 0 0 1-.601.317.725.725 0 0 1-.601-.317l-5.665-8.23a1.46 1.46 0 0 0-1.203-.634H4.131A4.13 4.13 0 0 1 0 61.39V24.918a4.131 4.131 0 0 1 4.131-4.131h44.742a4.13 4.13 0 0 1 4.13 4.131z"/></g><g><path fill="#19ad5a" d="M53.002 24.918v36.473a4.129 4.129 0 0 1-4.13 4.13H33.972c-.48 0-.93.236-1.203.633l-5.665 8.231a.725.725 0 0 1-.601.317V20.787h22.37a4.13 4.13 0 0 1 4.13 4.131z"/></g><g><path fill="#fff" d="M28.305 41.337h-3.622v-.93c0-.998.813-1.81 1.812-1.81h.007a1.812 1.812 0 0 1 1.803 1.81zm-1.803-7.12h-.007a6.198 6.198 0 0 0-6.192 6.19v7.513a2.19 2.19 0 0 0 4.38 0v-2.203h3.622v2.203a2.19 2.19 0 0 0 4.38 0v-7.513a6.197 6.197 0 0 0-6.183-6.19z"/></g><g><path fill="#dcf2ea" d="M32.684 40.407v7.513a2.19 2.19 0 1 1-4.38 0v-2.203h-1.802v-4.38h1.803v-.93c0-.995-.807-1.806-1.803-1.81v-4.38a6.197 6.197 0 0 1 6.182 6.19z"/></g><g><path fill="#fff" d="M14.359 38.597a2.19 2.19 0 0 0 0-4.38H7.13c-1.21 0-2.19.98-2.19 2.19v11.512a2.19 2.19 0 0 0 4.38 0v-3.308h5.038a2.19 2.19 0 0 0 0-4.38H9.32v-1.634z"/></g><g><path fill="#dcf2ea" d="M40.419 43.919v-3.512c0-.998.812-1.81 1.81-1.81.999 0 1.811.812 1.811 1.81v3.512c0 .998-.812 1.81-1.81 1.81-.999 0-1.811-.812-1.811-1.81zm9.086 3.988l-1.632-1.45a6.15 6.15 0 0 0 .547-2.539v-3.51a6.197 6.197 0 0 0-6.19-6.191 6.197 6.197 0 0 0-6.19 6.19v3.512a6.197 6.197 0 0 0 6.19 6.19 6.15 6.15 0 0 0 2.543-.549l1.823 1.62a2.19 2.19 0 1 0 2.909-3.273z"/></g></g></g></svg>