<?xml version="1.0" encoding="UTF-8"?><svg id="Layer_1" xmlns="http://www.w3.org/2000/svg" viewBox="0 0 578.97 101.07"><defs><style>.cls-1{fill:#fff;}.cls-2{fill:#dd7731;}</style></defs><g><path class="cls-1" d="M328.58,45.39c-9.16-.24-12.73-.81-12.73-4.71,0-1.86,.81-4.54,12.57-4.54,7.95,0,15.65,1.14,23.51,3v-13.38c-6.65-1.7-13.78-2.67-21.16-2.67h-2.92c-20.59,0-26.59,8.27-26.59,17.59v1.06c0,15.81,18,16.38,26.27,16.62,9.4,.24,12.81,.81,12.81,4.62,0,2.03-.89,4.7-12.49,4.7-8.27,0-18.08-1.3-26.84-3.24v13.62c7.7,1.62,15.81,2.59,24.32,2.59h2.92c20.67,0,26.67-8.27,26.67-17.51v-1.06c0-15.97-18.65-16.54-26.35-16.7Z"/><path class="cls-1" d="M372.39,18.23h-.65c-5.43,0-6.97,2.76-6.97,6.08v.98c0,3.32,1.54,6.08,6.97,6.08h.65c5.43,0,6.97-2.76,6.97-6.08v-.98c0-3.32-1.54-6.08-6.97-6.08Z"/><polygon class="cls-1" points="365.58 38.5 365.58 79.04 378.55 79.04 378.55 44.17 368.82 38.5 365.58 38.5"/><path class="cls-1" d="M449.02,36.88c-7.05,0-12.97,1.54-18.32,4.54-3.4-2.84-8.43-4.54-15.89-4.54-6.89,0-12.81,1.38-18.08,3.97l-3.97-2.35h-3.24v40.53h12.97v-28.45c3.65-1.3,7.62-1.95,12.08-1.95,9.16,0,9.16,4.94,9.16,10.13v20.27h12.97v-21.89c0-2.19-.16-4.38-.65-6.4,3.89-1.38,8.03-2.11,12.73-2.11,9.16,0,9.16,4.94,9.16,10.13v20.27h12.97v-21.89c0-11.35-4.7-20.27-21.89-20.27Z"/><path class="cls-1" d="M506.31,36.88c-7.05,0-12.81,1.38-18,4.22l-4.38-2.59h-3.24v60.81h12.97v-20.52c3.73,1.22,7.86,1.87,12.65,1.87,18.16,0,23.18-9.08,23.18-20.27v-3.25c0-11.19-5.02-20.27-23.18-20.27Zm-.73,32.02c-4.46,0-8.35-.57-11.92-1.7v-16.78c3.56-1.14,7.46-1.78,11.92-1.78,10.95,0,10.95,4.87,10.95,10.13s0,10.13-10.95,10.13Z"/><polygon class="cls-1" points="540.06 18.23 540.06 79.04 553.04 79.04 553.04 23.91 543.31 18.23 540.06 18.23"/><path class="cls-1" d="M571.21,18.23h-.65c-5.43,0-6.97,2.76-6.97,6.08v.98c0,3.32,1.54,6.08,6.97,6.08h.65c5.43,0,6.97-2.76,6.97-6.08v-.98c0-3.32-1.54-6.08-6.97-6.08Z"/><polygon class="cls-1" points="564.4 38.5 564.4 79.04 577.37 79.04 577.37 44.17 567.64 38.5 564.4 38.5"/></g><g><rect class="cls-2" x="0" width="282.97" height="101.07" rx="11.75" ry="11.75"/><g><path class="cls-1" d="M37.72,20.87c2.05,0,2.79,.74,2.79,2.79v45.84h23.53c2.05,0,2.79,.74,2.79,2.79v4.02c0,2.05-.74,2.79-2.79,2.79h-31c-2.05,0-2.87-.74-2.87-2.79V23.66c0-2.05,.82-2.79,2.87-2.79h4.67Z"/><path class="cls-1" d="M108.24,20.87c2.05,0,2.87,.74,2.87,2.79v4.02c0,2.05-.82,2.79-2.87,2.79h-25.09v14.35h21.24c2.05,0,2.79,.74,2.79,2.79v4.02c0,2.05-.74,2.79-2.79,2.79h-21.24v15.09h25.99c2.05,0,2.79,.74,2.79,2.79v4.02c0,2.05-.74,2.79-2.79,2.79h-33.46c-2.05,0-2.87-.74-2.87-2.79V23.66c0-2.05,.82-2.79,2.87-2.79h32.55Z"/><path class="cls-1" d="M161.54,47.19c2.21,0,2.79,.74,2.79,2.79v10.99c0,5.74-2.05,10.41-6.15,13.94-4.18,3.61-9.92,5.41-17.22,5.41-15.01,0-23.45-8.04-23.45-21.4v-17.96c0-13.2,8.45-21.32,23.45-21.32,11.64,0,19.11,4.59,22.3,13.69,.66,1.72,.08,2.95-1.72,3.61l-4.51,1.56c-1.97,.74-2.79,.33-3.53-1.72-1.8-5-5.99-7.54-12.55-7.54-8.53,0-13.12,4.1-13.12,11.64v18.12c0,7.63,4.67,11.73,13.12,11.73s13.28-4.02,13.28-9.68v-4.26h-12.38c-2.05,0-2.79-.82-2.79-2.87v-3.94c0-2.05,.74-2.79,2.79-2.79h19.68Z"/><path class="cls-1" d="M219.84,76.39c.66,1.8,0,2.71-1.89,2.71h-4.26c-3.36,0-4.43-.49-5.08-2.46l-3.77-10.58h-22.63l-3.85,10.58c-.66,1.97-1.72,2.46-5.08,2.46h-3.77c-1.89,0-2.54-.9-1.89-2.71l20.5-53.3c.74-1.89,1.48-2.3,3.44-2.3h4.35c1.97,0,2.79,.49,3.44,2.21l20.5,53.38Zm-24.11-36.08c-.98-2.95-1.64-6.72-1.89-8.61l-.08-1.39h-.57c0,3.12-.57,6.4-1.8,9.92l-6.31,17.38h16.89l-6.23-17.3Z"/><path class="cls-1" d="M232.31,20.87c2.05,0,2.79,.74,2.79,2.79v45.84h23.53c2.05,0,2.79,.74,2.79,2.79v4.02c0,2.05-.74,2.79-2.79,2.79h-31c-2.05,0-2.87-.74-2.87-2.79V23.66c0-2.05,.82-2.79,2.87-2.79h4.67Z"/></g></g></svg>