<?xml version="1.0" encoding="UTF-8"?><svg id="Layer_1" xmlns="http://www.w3.org/2000/svg" viewBox="0 0 559.4 101.07"><defs><style>.cls-1{fill:#fff;}.cls-2{fill:#428942;}</style></defs><g><path class="cls-1" d="M308.01,47.13c-9.16-.24-12.73-.81-12.73-4.7,0-1.86,.81-4.54,12.57-4.54,7.95,0,15.65,1.14,23.51,3v-13.38c-6.65-1.7-13.78-2.67-21.16-2.67h-2.92c-20.59,0-26.59,8.27-26.59,17.59v1.06c0,15.8,18,16.37,26.27,16.62,9.4,.24,12.81,.81,12.81,4.62,0,2.02-.89,4.7-12.49,4.7-8.27,0-18.08-1.3-26.84-3.25v13.63c7.7,1.62,15.81,2.59,24.32,2.59h2.92c20.67,0,26.67-8.27,26.67-17.51v-1.06c0-15.97-18.65-16.54-26.35-16.7Z"/><polygon class="cls-1" points="345.01 40.24 345.01 80.78 357.98 80.78 357.98 45.91 348.25 40.24 345.01 40.24"/><path class="cls-1" d="M351.82,19.97h-.65c-5.43,0-6.97,2.76-6.97,6.08v.97c0,3.33,1.54,6.09,6.97,6.09h.65c5.43,0,6.97-2.76,6.97-6.09v-.97c0-3.32-1.54-6.08-6.97-6.08Z"/><path class="cls-1" d="M428.45,38.62c-7.05,0-12.97,1.54-18.32,4.54-3.4-2.84-8.43-4.54-15.89-4.54-6.89,0-12.81,1.38-18.08,3.97l-3.97-2.35h-3.24v40.54h12.97v-28.46c3.65-1.29,7.62-1.94,12.08-1.94,9.16,0,9.16,4.94,9.16,10.13v20.27h12.97v-21.89c0-2.19-.16-4.38-.65-6.4,3.89-1.38,8.03-2.11,12.73-2.11,9.16,0,9.16,4.94,9.16,10.13v20.27h12.97v-21.89c0-11.35-4.7-20.27-21.89-20.27Z"/><path class="cls-1" d="M485.74,38.62c-7.05,0-12.81,1.38-18,4.22l-4.38-2.6h-3.24v60.81h12.97v-20.52c3.73,1.21,7.86,1.86,12.65,1.86,18.16,0,23.18-9.08,23.18-20.27v-3.24c0-11.19-5.02-20.27-23.18-20.27Zm-.73,32.02c-4.46,0-8.35-.57-11.92-1.7v-16.78c3.56-1.14,7.46-1.78,11.92-1.78,10.95,0,10.95,4.86,10.95,10.13s0,10.14-10.95,10.14Z"/><polygon class="cls-1" points="519.49 19.97 519.49 80.78 532.47 80.78 532.47 25.65 522.74 19.97 519.49 19.97"/><polygon class="cls-1" points="543.83 40.24 543.83 80.78 556.8 80.78 556.8 45.91 547.07 40.24 543.83 40.24"/><path class="cls-1" d="M550.64,19.97h-.65c-5.43,0-6.97,2.76-6.97,6.08v.97c0,3.33,1.54,6.09,6.97,6.09h.65c5.43,0,6.97-2.76,6.97-6.09v-.97c0-3.32-1.54-6.08-6.97-6.08Z"/></g><g><path class="cls-2" d="M11.75,0H250.64c6.49,0,11.75,5.27,11.75,11.75V89.32c0,6.49-5.27,11.75-11.75,11.75H11.75C5.26,101.07,0,95.81,0,89.32V11.75C0,5.27,5.26,0,11.75,0Z"/><g><path class="cls-1" d="M50.55,22.55c15.09,0,23.78,8.2,23.78,21.65v14.92c0,13.45-8.69,21.65-23.78,21.65h-18.37c-2.05,0-2.87-.74-2.87-2.79V25.34c0-2.05,.82-2.79,2.87-2.79h18.37Zm13.53,21.57c0-7.79-4.84-11.97-13.45-11.97h-10.99v39.03h10.99c8.61,0,13.45-4.18,13.45-11.97v-15.09Z"/><path class="cls-1" d="M81.63,42.73c0-13.37,8.45-21.4,23.45-21.4s23.37,8.04,23.37,21.4v17.88c0,13.37-8.53,21.4-23.37,21.4s-23.45-8.04-23.45-21.4v-17.88Zm36.57-.08c0-7.54-4.67-11.73-13.12-11.73s-13.12,4.1-13.12,11.73v18.04c0,7.63,4.67,11.73,13.12,11.73s13.12-4.18,13.12-11.73v-18.04Z"/><path class="cls-1" d="M135.83,42.65c0-13.2,8.45-21.32,23.45-21.32,11.64,0,19.11,4.59,22.3,13.69,.66,1.72,.08,2.95-1.72,3.61l-4.51,1.56c-1.97,.66-2.79,.25-3.53-1.72-1.8-5-5.99-7.54-12.55-7.54-8.45,0-13.12,4.1-13.12,11.64v18.12c0,7.54,4.67,11.73,13.12,11.73,6.48,0,10.66-2.54,12.55-7.63,.9-2.05,1.64-2.46,3.61-1.72l4.43,1.56c1.8,.66,2.38,1.89,1.8,3.61-3.2,9.18-10.66,13.78-22.39,13.78-15.01,0-23.45-8.04-23.45-21.4v-17.96Z"/><path class="cls-1" d="M199.22,60.85c0,7.46,4.35,11.56,12.63,11.56s12.63-4.1,12.63-11.56V25.34c0-2.05,.74-2.79,2.79-2.79h4.67c2.05,0,2.79,.74,2.79,2.79V60.77c0,13.12-8.12,21.24-22.88,21.24s-22.96-8.12-22.96-21.24V25.34c0-2.05,.74-2.79,2.79-2.79h4.76c2.05,0,2.79,.74,2.79,2.79V60.85Z"/></g></g></svg>