<?xml version="1.0" encoding="UTF-8"?><svg id="Layer_1" xmlns="http://www.w3.org/2000/svg" viewBox="0 0 493.03 101.07"><defs><style>.cls-1{fill:#fff;}.cls-2{fill:#c13d3d;}</style></defs><path class="cls-1" d="M255.4,65.13c0-3.82-3.41-4.38-12.81-4.62-8.27-.25-26.27-.82-26.27-16.62v-1.06c0-9.32,6-17.59,26.59-17.59h2.92c7.38,0,14.51,.97,21.16,2.67v13.37c-7.87-1.86-15.57-3-23.51-3-11.76,0-12.57,2.68-12.57,4.54,0,3.89,3.56,4.46,12.73,4.7,7.7,.17,26.35,.73,26.35,16.7v1.06c0,9.24-6,17.51-26.67,17.51h-2.92c-8.51,0-16.62-.96-24.32-2.59v-13.63c8.75,1.95,18.57,3.25,26.84,3.25,11.59,0,12.49-2.68,12.49-4.7Z"/><path class="cls-1" d="M279.84,26.45c0-3.32,1.54-6.08,6.97-6.08h.65c5.43,0,6.97,2.76,6.97,6.08v.97c0,3.33-1.54,6.09-6.97,6.09h-.65c-5.43,0-6.97-2.76-6.97-6.09v-.97Zm4.05,14.19l9.73,5.68v34.86h-12.97V40.64h3.24Z"/><path class="cls-1" d="M307.82,40.64l3.97,2.35c5.27-2.59,11.19-3.97,18.08-3.97,7.46,0,12.49,1.7,15.89,4.54,5.35-3,11.27-4.54,18.32-4.54,17.19,0,21.89,8.93,21.89,20.27v21.89h-12.97v-20.27c0-5.19,0-10.13-9.16-10.13-4.7,0-8.84,.73-12.73,2.11,.49,2.03,.65,4.22,.65,6.4v21.89h-12.97v-20.27c0-5.19,0-10.13-9.16-10.13-4.46,0-8.43,.65-12.08,1.94v28.46h-12.97V40.64h3.24Z"/><path class="cls-1" d="M399,40.64l4.38,2.6c5.19-2.84,10.95-4.23,18-4.23,18.16,0,23.18,9.08,23.18,20.27v3.24c0,11.19-5.02,20.27-23.18,20.27-4.79,0-8.92-.65-12.65-1.86v20.52h-12.97V40.64h3.24Zm9.73,11.92v16.78c3.56,1.14,7.46,1.7,11.92,1.7,10.95,0,10.95-4.87,10.95-10.14s0-10.13-10.95-10.13c-4.46,0-8.35,.65-11.92,1.78Z"/><path class="cls-1" d="M458.38,20.37l9.73,5.68v55.13h-12.97V20.37h3.24Z"/><path class="cls-1" d="M478.66,26.45c0-3.32,1.54-6.08,6.97-6.08h.65c5.43,0,6.97,2.76,6.97,6.08v.97c0,3.33-1.54,6.09-6.97,6.09h-.65c-5.43,0-6.97-2.76-6.97-6.09v-.97Zm4.05,14.19l9.73,5.68v34.86h-12.97V40.64h3.24Z"/><g><rect class="cls-2" x="0" width="198.03" height="101.07" rx="11.75" ry="11.75"/><g><path class="cls-1" d="M56.41,23.33c11.89,0,19.35,7.22,19.35,19.02s-7.46,18.94-19.35,18.94h-14.27v17.47c0,2.05-.74,2.79-2.79,2.79h-4.67c-2.05,0-2.87-.74-2.87-2.79V26.11c0-2.05,.82-2.79,2.87-2.79h21.73Zm-.98,28.37c5.99,0,9.51-3.44,9.51-9.35s-3.53-9.43-9.51-9.43h-13.28v18.78h13.28Z"/><path class="cls-1" d="M104.21,23.33c15.09,0,23.78,8.2,23.78,21.65v14.92c0,13.45-8.69,21.65-23.78,21.65h-18.37c-2.05,0-2.87-.74-2.87-2.79V26.11c0-2.05,.82-2.79,2.87-2.79h18.37Zm13.53,21.57c0-7.79-4.84-11.97-13.45-11.97h-10.99v39.03h10.99c8.61,0,13.45-4.18,13.45-11.97v-15.09Z"/><path class="cls-1" d="M172.35,23.33c2.05,0,2.87,.74,2.87,2.79v4.02c0,2.05-.82,2.79-2.87,2.79h-25.09v15.09h21.07c2.05,0,2.87,.74,2.87,2.79v4.02c0,2.05-.66,2.79-2.87,2.79h-21.07v21.16c0,2.05-.74,2.79-2.79,2.79h-4.67c-2.05,0-2.87-.74-2.87-2.79V26.11c0-2.05,.82-2.79,2.87-2.79h32.55Z"/></g></g></svg>