<?xml version="1.0" encoding="UTF-8"?><svg id="Layer_1" xmlns="http://www.w3.org/2000/svg" viewBox="0 0 527.69 101.07"><defs><style>.cls-1{fill:#fff;}.cls-2{fill:#2e68b1;}</style></defs><path class="cls-1" d="M289.05,65.13c0-3.82-3.41-4.38-12.81-4.62-8.27-.25-26.27-.82-26.27-16.62v-1.06c0-9.32,6-17.59,26.59-17.59h2.92c7.38,0,14.51,.97,21.16,2.67v13.37c-7.87-1.86-15.57-3-23.51-3-11.76,0-12.57,2.68-12.57,4.54,0,3.89,3.56,4.46,12.73,4.7,7.7,.17,26.35,.73,26.35,16.7v1.06c0,9.24-6,17.51-26.67,17.51h-2.92c-8.51,0-16.62-.97-24.32-2.59v-13.63c8.75,1.95,18.57,3.25,26.84,3.25,11.59,0,12.49-2.68,12.49-4.7Z"/><path class="cls-1" d="M313.48,26.45c0-3.32,1.54-6.08,6.97-6.08h.65c5.43,0,6.97,2.76,6.97,6.08v.97c0,3.33-1.54,6.09-6.97,6.09h-.65c-5.43,0-6.97-2.76-6.97-6.09v-.97Zm4.05,14.19l9.73,5.68v34.86h-12.97V40.63h3.24Z"/><path class="cls-1" d="M341.46,40.63l3.97,2.35c5.27-2.59,11.19-3.97,18.08-3.97,7.46,0,12.49,1.7,15.89,4.54,5.35-3,11.27-4.54,18.32-4.54,17.19,0,21.89,8.92,21.89,20.27v21.89h-12.97v-20.27c0-5.19,0-10.13-9.16-10.13-4.7,0-8.84,.73-12.73,2.11,.49,2.03,.65,4.22,.65,6.4v21.89h-12.97v-20.27c0-5.19,0-10.13-9.16-10.13-4.46,0-8.43,.65-12.08,1.94v28.46h-12.97V40.63h3.24Z"/><path class="cls-1" d="M432.64,40.63l4.38,2.6c5.19-2.84,10.95-4.22,18-4.22,18.16,0,23.18,9.08,23.18,20.27v3.24c0,11.19-5.02,20.27-23.18,20.27-4.79,0-8.92-.65-12.65-1.86v20.52h-12.97V40.63h3.24Zm9.73,11.92v16.78c3.56,1.14,7.46,1.7,11.92,1.7,10.95,0,10.95-4.87,10.95-10.14s0-10.13-10.95-10.13c-4.46,0-8.35,.65-11.92,1.78Z"/><path class="cls-1" d="M492.02,20.37l9.73,5.68v55.13h-12.97V20.37h3.24Z"/><path class="cls-1" d="M512.3,26.45c0-3.32,1.54-6.08,6.97-6.08h.65c5.43,0,6.97,2.76,6.97,6.08v.97c0,3.33-1.54,6.09-6.97,6.09h-.65c-5.43,0-6.97-2.76-6.97-6.09v-.97Zm4.05,14.19l9.73,5.68v34.86h-12.97V40.63h3.24Z"/><g><rect class="cls-2" x="0" y="0" width="231.69" height="101.07" rx="11.75" ry="11.75"/><g><path class="cls-1" d="M52.3,21.72c11.4,0,17.55,3.94,21.57,12.38,.82,1.72,.33,2.95-1.56,3.77l-4.51,1.97c-1.89,.74-2.54,.49-3.53-1.39-2.3-4.59-5.74-6.89-11.97-6.89-7.95,0-11.89,2.54-11.89,7.54-.49,4.35,4.35,6.31,8.69,6.97,2.54,.49,8.45,1.15,11.48,1.72,3.28,.66,7.79,2.3,10.33,4.59s4.51,6.4,4.51,11.64c0,11.15-8.61,18.37-23.37,18.37-12.38,0-19.02-4.51-22.55-13.69-.74-2.05-.25-2.95,1.72-3.61l4.51-1.64c1.89-.66,2.62-.25,3.53,1.72,2.13,5.08,6.4,7.63,12.79,7.63,8.69,0,13.04-2.87,13.04-8.53,0-3.61-3.12-5.82-6.4-6.64-1.64-.41-3.85-.74-6.56-.98-3.69-.41-5.25-.57-8.77-1.31-3.53-.74-5.25-1.64-7.87-3.36-3.69-2.38-5.41-6.23-5.66-12.3,0-10.74,8.12-17.96,22.47-17.96Z"/><path class="cls-1" d="M82.8,25.74c0-2.05,.82-2.79,2.87-2.79h4.67c2.05,0,2.79,.74,2.79,2.79v52.64c0,2.05-.74,2.79-2.79,2.79h-4.67c-2.05,0-2.87-.74-2.87-2.79V25.74Z"/><path class="cls-1" d="M146.19,49.28c2.21,0,2.79,.74,2.79,2.79v10.99c0,5.74-2.05,10.41-6.15,13.94-4.18,3.61-9.92,5.41-17.22,5.41-15.01,0-23.45-8.04-23.45-21.4v-17.96c0-13.2,8.45-21.32,23.45-21.32,11.64,0,19.11,4.59,22.3,13.69,.66,1.72,.08,2.95-1.72,3.61l-4.51,1.56c-1.97,.74-2.79,.33-3.53-1.72-1.8-5-5.99-7.54-12.55-7.54-8.53,0-13.12,4.1-13.12,11.64v18.12c0,7.63,4.67,11.73,13.12,11.73s13.28-4.02,13.28-9.68v-4.26h-12.38c-2.05,0-2.79-.82-2.79-2.87v-3.94c0-2.05,.74-2.79,2.79-2.79h19.68Z"/><path class="cls-1" d="M200.31,22.95c2.05,0,2.79,.74,2.79,2.79v52.64c0,2.05-.74,2.79-2.79,2.79h-4.67c-1.23,0-2.13-.49-2.71-1.39l-20.09-29.68c-3.44-5-6.89-14.02-6.72-13.78h-.49c0-.25,1.8,9.43,1.8,16.32v25.75c0,2.05-.74,2.79-2.79,2.79h-4.35c-2.05,0-2.87-.74-2.87-2.79V25.74c0-2.05,.82-2.79,2.87-2.79h4.67c1.23,0,2.13,.41,2.71,1.31l19.93,29.52c3.77,5.49,6.97,14.02,6.89,13.94h.49c0,.08-1.8-9.18-1.8-16.56V25.74c0-2.05,.74-2.79,2.79-2.79h4.35Z"/></g></g></svg>