<?xml version="1.0" encoding="UTF-8"?><svg id="Layer_1" xmlns="http://www.w3.org/2000/svg" viewBox="0 0 564.09 100.35"><defs><style>.cls-1{fill:#fff;}.cls-2{fill:#ffb448;}</style></defs><path class="cls-1" d="M327.22,64.06c0-3.79-3.39-4.36-12.76-4.6-8.23-.24-26.16-.81-26.16-16.55v-1.05c0-9.29,5.98-17.53,26.49-17.53h2.91c7.35,0,14.45,.97,21.08,2.67v13.32c-7.83-1.86-15.5-2.99-23.42-2.99-11.71,0-12.52,2.66-12.52,4.52,0,3.87,3.55,4.44,12.68,4.68,7.67,.16,26.24,.73,26.24,16.64v1.05c0,9.2-5.98,17.44-26.57,17.44h-2.91c-8.48,0-16.55-.97-24.23-2.58v-13.56c8.72,1.93,18.49,3.23,26.73,3.23,11.55,0,12.44-2.67,12.44-4.69Z"/><path class="cls-1" d="M351.53,25.55c0-3.31,1.53-6.06,6.94-6.06h.64c5.41,0,6.94,2.75,6.94,6.06v.96c0,3.31-1.53,6.06-6.94,6.06h-.64c-5.41,0-6.94-2.75-6.94-6.06v-.96Zm4.04,14.13l9.69,5.65v34.72h-12.92V39.68h3.23Z"/><path class="cls-1" d="M379.39,39.68l3.96,2.34c5.25-2.58,11.14-3.95,18.01-3.95,7.43,0,12.44,1.69,15.83,4.52,5.33-2.99,11.22-4.52,18.25-4.52,17.12,0,21.8,8.88,21.8,20.18v21.8h-12.92v-20.19c0-5.17,0-10.09-9.13-10.09-4.68,0-8.8,.73-12.68,2.1,.48,2.02,.65,4.2,.65,6.38v21.8h-12.92v-20.19c0-5.17,0-10.09-9.13-10.09-4.44,0-8.4,.65-12.03,1.94v28.35h-12.92V39.68h3.23Z"/><path class="cls-1" d="M470.16,39.68l4.36,2.58c5.17-2.83,10.9-4.2,17.93-4.2,18.09,0,23.1,9.04,23.1,20.18v3.23c0,11.14-5.01,20.19-23.1,20.19-4.76,0-8.88-.64-12.6-1.86v20.43h-12.92V39.68h3.23Zm9.69,11.87v16.71c3.55,1.13,7.43,1.7,11.87,1.7,10.9,0,10.9-4.84,10.9-10.09s0-10.09-10.9-10.09c-4.44,0-8.32,.65-11.87,1.78Z"/><path class="cls-1" d="M529.27,19.49l9.69,5.66v54.91h-12.92V19.49h3.23Z"/><path class="cls-1" d="M549.46,25.55c0-3.31,1.53-6.06,6.94-6.06h.64c5.41,0,6.94,2.75,6.94,6.06v.96c0,3.31-1.53,6.06-6.94,6.06h-.64c-5.41,0-6.94-2.75-6.94-6.06v-.96Zm4.04,14.13l9.69,5.65v34.72h-12.92V39.68h3.23Z"/><g><rect class="cls-2" x="0" width="268.09" height="100.35" rx="8.26" ry="8.26"/><g><path class="cls-1" d="M88.55,21.9c1.89,0,2.38,.82,1.8,2.71l-13.53,53.22c-.41,1.89-1.39,2.3-3.44,2.3h-4.51c-1.97,0-3.12-.74-3.44-2.21l-8.61-32.55c-.82-3.2-1.23-6.23-1.31-9.27h-.57c-.08,2.87-.49,5.99-1.39,9.18l-8.69,32.55c-.41,1.89-1.39,2.3-3.44,2.3h-4.43c-2.05,0-3.12-.49-3.53-2.21L19.99,24.61c-.57-1.89-.16-2.71,1.8-2.71h5.74c2.38,0,3.28,.49,3.69,2.46l6.72,30.59c.16,.74,.57,4.35,1.31,10.99h.49c.16-3.77,.74-7.46,1.64-10.99l8.28-30.34c.57-1.97,1.48-2.46,3.69-2.46h4.43c2.3,0,3.28,.49,3.69,2.46l8.12,30.34c.98,3.77,1.56,7.46,1.72,10.99h.49c.25-3.53,.74-7.22,1.48-10.91l6.56-30.67c.41-1.97,1.31-2.46,3.69-2.46h5Z"/><path class="cls-1" d="M94.37,42.08c0-13.37,8.45-21.4,23.45-21.4s23.37,8.04,23.37,21.4v17.88c0,13.37-8.53,21.4-23.37,21.4s-23.45-8.04-23.45-21.4v-17.88Zm36.57-.08c0-7.54-4.67-11.73-13.12-11.73s-13.12,4.1-13.12,11.73v18.04c0,7.63,4.67,11.73,13.12,11.73s13.12-4.18,13.12-11.73v-18.04Z"/><path class="cls-1" d="M175.71,21.9c11.48,0,18.45,6.81,18.45,18.04,0,8.45-3.94,14.27-10.82,16.56,.98,.82,1.89,1.97,2.62,3.53l9.02,17.3c.98,1.89,.49,2.79-1.39,2.79h-4.76c-3.61,0-4.59-.41-5.58-2.46l-6.89-13.94c-2.21-4.59-4.18-5.74-9.76-5.74h-6.07v19.35c0,2.05-.74,2.79-2.79,2.79h-4.67c-2.05,0-2.87-.74-2.87-2.79V24.69c0-2.05,.82-2.79,2.87-2.79h22.63Zm7.63,18.04c0-2.71-.74-4.84-2.21-6.31-1.48-1.39-3.61-2.13-6.4-2.13h-14.19v16.89h14.19c2.71,0,4.84-.74,6.4-2.21,1.48-1.39,2.21-3.53,2.21-6.23Z"/><path class="cls-1" d="M247.21,77.34c.98,1.89,.49,2.79-1.39,2.79h-4.76c-3.61,0-4.59-.41-5.58-2.46l-8.28-16.65c-1.15-2.21-2.38-3.77-3.61-4.59-1.31-.74-3.36-1.15-6.15-1.15h-4.18v22.06c0,2.05-.74,2.79-2.79,2.79h-4.67c-2.05,0-2.87-.74-2.87-2.79V24.69c0-2.05,.82-2.79,2.87-2.79h4.67c2.05,0,2.79,.74,2.79,2.79v21.24h4.35l16.48-21.73c1.39-1.97,2.3-2.3,5.58-2.3h5.25c1.89,0,2.38,1.31,1.31,2.71l-18.29,23.37c3.53,1.56,6.48,4.67,8.86,9.35l10.41,20.01Z"/></g></g></svg>