<?xml version="1.0" encoding="UTF-8"?><svg id="Layer_1" xmlns="http://www.w3.org/2000/svg" viewBox="0 0 658.33 195.33"><defs><style>.cls-1{fill:#fff;}.cls-2{fill:#2fbe6e;}.cls-3{fill:#e8e8e8;}</style></defs><g><path class="cls-2" d="M349.66,173.99c5.44,0,8.37,2.51,8.37,7.95,0,2.51-.84,4.18-2.09,5.86-1.67,1.25-3.76,2.09-6.27,2.09h-9.62v-15.48h9.62v-.42Zm-9.62-18.4h8.37c2.93,0,5.02,.42,6.27,1.67,1.25,1.25,2.09,2.93,2.09,5.02s-.84,3.76-2.09,5.02c-1.67,1.25-3.35,1.67-5.86,1.67h-8.78v-13.38Zm-5.44,38.9h15.06c4.6,0,7.95-1.25,10.87-3.35,2.51-2.09,3.76-5.02,3.76-9.2,0-2.51-.84-4.6-2.09-6.69-1.25-1.67-3.35-3.35-5.44-3.76,2.09-.84,3.35-2.09,4.6-3.76,1.25-1.67,1.67-3.35,1.67-5.44,0-3.76-1.25-6.69-3.76-8.78s-5.86-2.93-10.46-2.93h-14.22v43.92Z"/><path class="cls-2" d="M402.78,150.99v29.7c0,4.18-1.25,7.53-3.76,10.04-2.51,2.51-5.86,4.18-10.46,4.6h-1.67c-4.6,0-8.37-1.25-11.29-3.76-2.93-2.51-4.18-6.27-4.18-10.46v-29.7h5.44v29.28c0,2.93,.84,5.44,2.51,7.53,1.67,1.67,4.18,2.51,7.53,2.51s5.86-.84,7.53-2.51c1.67-1.67,2.51-4.18,2.51-7.11v-29.28l5.86-.84h0Z"/><path class="cls-2" d="M418.26,194.49h-5.86v-43.5h5.86v43.5Z"/><path class="cls-2" d="M434.57,189.89h20.49v4.6h-26.35v-43.5h5.86v38.9h0Z"/><path class="cls-2" d="M473.88,155.59c4.18,0,7.53,1.25,10.04,4.18,2.51,2.93,3.35,6.69,3.35,11.71v2.51c0,5.02-1.25,9.2-3.76,11.71-2.51,2.51-5.86,4.18-10.46,4.18h-5.86v-33.88l6.69-.42Zm-.42,38.9c3.76,0,7.11-.84,10.04-2.51,2.93-1.67,5.44-4.18,6.69-7.11,1.67-2.93,2.51-6.69,2.51-10.87v-2.93c0-4.18-.84-7.53-2.51-10.46s-3.76-5.44-6.69-7.11c-2.93-1.67-6.27-2.51-10.04-2.51h-12.13v43.5h12.13Z"/></g><path class="cls-3" d="M322.06,178.6v-4.18H167.72"/><path class="cls-3" d="M504,178.6v-4.18h154.34"/><g><path class="cls-1" d="M197.42,43.5h15.48c5.02,0,9.2,1.25,11.71,3.76,2.51,2.51,3.76,5.86,3.76,10.46,0,4.18-1.25,7.95-4.18,10.46-2.51,2.51-6.27,3.76-11.29,3.76h-15.89l.42-28.44Zm33.46,78.63h20.91v-.84l-20.49-38.48c5.44-2.51,10.04-5.86,12.55-10.46,2.93-4.18,4.18-9.62,4.18-16.31,0-9.2-2.93-15.89-9.2-20.91-5.86-5.02-14.64-7.53-25.93-7.53h-35.13l.42,94.53h19.66v-34.72h15.48l17.57,34.72Z"/><path class="cls-1" d="M291.94,65.25c4.18,0,7.11,1.25,9.2,3.35s3.35,5.44,3.35,9.62v1.67h-25.93c.84-4.6,2.09-8.37,4.6-10.87,2.09-2.51,5.02-3.76,8.78-3.76Zm2.51,57.72c5.86,0,11.29-1.25,15.89-3.35,4.6-2.09,8.37-5.44,11.29-9.2l-9.2-10.46c-4.18,5.02-9.62,7.95-16.73,7.95-4.6,0-8.37-1.25-11.71-4.18-2.93-2.93-5.02-6.27-5.44-10.87l44.75-.42v-7.53c0-11.29-2.93-19.66-8.37-25.51-5.44-5.86-12.97-9.2-22.59-8.78-6.27,0-12.13,1.67-17.15,4.6-5.02,2.93-8.78,7.53-11.71,12.97-2.51,5.44-4.18,11.71-4.18,18.82v1.67c0,10.46,3.35,18.82,10.04,25.1,6.27,6.27,14.64,9.2,25.1,9.2Z"/><path class="cls-1" d="M371.83,102.05c0-2.09-1.25-4.18-3.35-5.44s-5.86-2.51-10.87-3.35c-16.73-3.35-25.1-10.46-25.1-21.33,0-6.27,2.51-11.29,7.53-15.48,5.02-4.18,11.71-6.27,20.08-6.27,8.78,0,15.89,2.09,21.33,6.27,5.44,4.18,7.95,9.62,7.95,16.31h-18.82c0-2.51-.84-5.02-2.51-6.69s-4.6-2.51-7.95-2.51-5.44,.84-7.53,2.09c-1.67,1.25-2.51,3.35-2.51,5.44s.84,3.76,2.93,5.02c2.09,1.25,5.44,2.51,10.04,3.35,4.6,.84,8.78,2.09,11.71,2.93,10.04,3.76,15.06,10.04,15.06,18.82,0,6.27-2.51,11.71-7.95,15.48-5.44,4.18-12.55,5.86-21.33,5.86-5.86,0-11.29-.84-15.48-2.93-4.6-2.09-7.95-5.02-10.87-8.37s-3.76-7.95-3.76-12.13h17.99c0,3.35,1.67,5.86,3.76,7.53s5.44,2.51,9.2,2.51,6.27-.84,7.95-2.09c1.67-1.25,2.51-2.93,2.51-5.02Z"/><path class="cls-1" d="M444.19,113.77c-4.6,5.44-10.87,8.37-19.24,8.37-7.53,0-13.38-2.09-17.15-6.27-4.18-4.18-5.86-10.46-6.27-18.82l-.42-46.01h18.82l.42,45.59c0,7.53,3.35,10.87,10.04,10.87,6.27,0,10.87-2.09,12.97-6.69l-.42-49.77h18.82l.42,70.27h-17.57l-.42-7.53Z"/><path class="cls-1" d="M493.96,50.19l.84,7.95c5.02-6.27,11.71-9.2,20.08-9.2,9.2,0,15.06,3.35,18.82,10.46,5.02-7.11,11.71-10.87,20.91-10.87,7.53,0,13.38,2.09,17.15,6.69s5.44,11.29,5.86,20.08l-.42,44.75h-18.82l-.42-44.75c0-4.18-.84-6.69-2.51-8.78-1.67-1.67-4.18-2.93-8.37-2.51-5.44,0-9.62,2.93-11.71,7.95l.42,48.1h-18.82l-.42-44.75c0-4.18-.84-7.11-2.51-8.78s-4.18-2.51-7.95-2.51c-5.44,0-9.2,2.09-11.71,6.69l.42,49.77h-18.82l-.42-70.27h18.4Z"/><path class="cls-1" d="M630.73,66.92c2.09,2.09,3.35,5.44,3.35,9.62v1.67h-25.93c.84-4.6,2.09-8.37,4.6-10.87,2.09-2.51,5.44-3.76,9.2-3.76,3.35-.42,6.69,.84,8.78,3.35h0Zm-6.69,53.95c5.86,0,11.29-1.25,15.89-3.35,4.6-2.09,8.37-5.44,11.29-9.2l-9.2-10.46c-4.18,5.02-9.62,7.95-16.73,7.95-4.6,0-8.37-1.25-11.71-4.18-2.93-2.93-5.02-6.27-5.44-10.87h44.34v-7.53c0-11.29-2.93-19.66-8.37-25.51-5.44-5.86-12.97-9.2-22.59-8.78-6.27,0-12.13,1.67-17.15,4.6-5.02,2.93-8.78,7.53-11.71,12.97-2.51,5.44-4.18,11.71-4.18,18.82v1.25c0,10.46,3.35,18.82,10.04,25.1,6.69,6.27,15.06,9.62,25.51,9.2Z"/></g><g><path class="cls-3" d="M130.91,11.29v-1.25h-7.53l7.53,1.25Z"/><path class="cls-3" d="M29.7,168.98H11.29v-2.51l-9.2-1.25L11.29,98.29V39.32h7.95l2.51-19.24,13.38-10.04h-10.87L0,33.46V180.27H111.67l-81.98-11.29Z"/></g><g><path class="cls-2" d="M42.66,117.53c7.95,1.25,61.07,8.37,69.01,9.62,5.86,.84,7.11-8.37,1.25-9.2-7.95-1.25-61.07-8.37-69.01-9.62-5.86-1.25-7.11,8.37-1.25,9.2h0Z"/><path class="cls-2" d="M39.32,141.79c7.95,1.25,16.31,2.09,24.26,3.35,5.86,.84,7.11-8.37,1.25-9.2-7.95-1.25-16.31-2.09-24.26-3.35-5.86-.84-7.11,8.37-1.25,9.2Z"/><path class="cls-2" d="M48.1,76.12c-5.86-.84-7.11,8.37-1.25,9.2,7.95,1.25,61.07,8.37,69.01,9.62,5.86,.84,7.11-8.37,1.25-9.2-7.95-1.25-60.65-8.37-69.01-9.62Z"/><path class="cls-2" d="M44.75,100.38c7.95,1.25,61.07,8.37,69.01,9.62,5.86,.84,7.11-8.37,1.25-9.2-7.95-1.25-61.07-8.37-69.01-9.62-5.86-.84-7.11,8.78-1.25,9.2Z"/><path class="cls-2" d="M121.29,46.43c-7.95-1.25-16.31-2.09-24.26-3.35-5.86-.84-7.11,8.37-1.25,9.2,7.95,1.25,16.31,2.09,24.26,3.35,5.86,.84,7.11-8.37,1.25-9.2Z"/><path class="cls-2" d="M119.2,61.48c-7.95-1.25-16.31-2.09-24.26-3.35-5.86-.84-7.11,8.37-1.25,9.2,7.95,1.25,16.31,2.09,24.26,3.35,5.86,.84,7.11-8.37,1.25-9.2Z"/><path class="cls-2" d="M32.62,27.19l18.82,2.51,2.51-17.57,88.25,12.13-20.08,145.97-107.07-14.64L32.62,27.19Zm-10.46-7.11L2.09,165.21l129.66,17.98L155.17,14.64,49.35,0,22.17,20.08Z"/></g></svg>